#define moon24_width 60
#define moon24_height 60
static char moon24_bits[] = {
  0x00, 0x00, 0x00, 0x00, 0x00, 0x00, 0x00, 0x00, 0x00, 0x00, 0x00, 0x14, 
  0x00, 0x00, 0x00, 0x00, 0x00, 0x00, 0xC0, 0x47, 0x05, 0x00, 0x00, 0x00, 
  0x00, 0x00, 0xF8, 0x11, 0xA8, 0x00, 0x00, 0x00, 0x00, 0x00, 0xBE, 0x42, 
  0x01, 0x02, 0x00, 0x00, 0x00, 0x80, 0xF7, 0x10, 0x54, 0x04, 0x00, 0x00, 
  0x00, 0xC0, 0x5E, 0x04, 0x01, 0x11, 0x00, 0x00, 0x00, 0xF0, 0x7B, 0x50, 
  0x00, 0xA4, 0x00, 0x00, 0x00, 0xA8, 0x3E, 0x01, 0xA9, 0x00, 0x00, 0x00, 
  0x00, 0xFC, 0x2F, 0x24, 0x02, 0xAA, 0x02, 0x00, 0x00, 0x6A, 0x1F, 0x80, 
  0x28, 0x00, 0x00, 0x00, 0x00, 0xFF, 0x97, 0x08, 0x42, 0x55, 0x05, 0x00, 
  0x00, 0xAD, 0x0D, 0x42, 0x08, 0x00, 0x08, 0x00, 0x80, 0xFF, 0x4F, 0x00, 
  0x40, 0x48, 0x11, 0x00, 0xC0, 0xB5, 0x0D, 0x48, 0x05, 0x01, 0x22, 0x00, 
  0x60, 0xFF, 0x87, 0x00, 0x10, 0xA8, 0x04, 0x00, 0xE0, 0xAD, 0x26, 0x12, 
  0x80, 0x00, 0x51, 0x00, 0x50, 0xFF, 0x07, 0xA0, 0x12, 0x54, 0x84, 0x00, 
  0xF0, 0xB5, 0x45, 0x04, 0x00, 0x01, 0x11, 0x00, 0xB0, 0xFF, 0x07, 0x51, 
  0x49, 0x20, 0x44, 0x01, 0x78, 0x5B, 0x13, 0x00, 0x00, 0x84, 0x00, 0x00, 
  0xD8, 0xFF, 0x43, 0x24, 0x25, 0x10, 0x4A, 0x01, 0xEC, 0x6A, 0x07, 0x00, 
  0x80, 0x82, 0x10, 0x02, 0xBC, 0xFF, 0x93, 0x24, 0x29, 0x20, 0x82, 0x00, 
  0xF4, 0xD6, 0x22, 0x00, 0x00, 0x04, 0x14, 0x02, 0xDC, 0xFF, 0x87, 0x48, 
  0xA4, 0x80, 0x40, 0x00, 0xBC, 0xBA, 0x11, 0x21, 0x01, 0x12, 0x14, 0x05, 
  0xEE, 0xEF, 0x43, 0x08, 0xA8, 0x40, 0x40, 0x00, 0xBC, 0x7B, 0x13, 0x40, 
  0x01, 0x10, 0x82, 0x02, 0xEE, 0xDE, 0x05, 0x09, 0x2A, 0x82, 0x08, 0x04, 
  0xBE, 0xF7, 0x23, 0x20, 0x40, 0x20, 0x20, 0x01, 0xF4, 0xBD, 0x42, 0x92, 
  0x8A, 0x8A, 0x02, 0x04, 0xBE, 0xEF, 0x83, 0x08, 0x10, 0x20, 0x48, 0x01, 
  0xEC, 0xFA, 0x12, 0xA4, 0xA2, 0x82, 0x02, 0x04, 0x7E, 0xDF, 0x43, 0x00, 
  0x04, 0x28, 0x20, 0x01, 0xF4, 0x7B, 0x83, 0x94, 0xA8, 0x82, 0x82, 0x04, 
  0x7C, 0xDF, 0x13, 0x21, 0x02, 0x08, 0x08, 0x02, 0xFC, 0x7D, 0x43, 0x80, 
  0x54, 0xA1, 0xA2, 0x00, 0xD8, 0xFF, 0x0B, 0x54, 0x00, 0x0A, 0x08, 0x02, 
  0xF8, 0x5F, 0x03, 0x01, 0x55, 0x80, 0x42, 0x01, 0xB8, 0xFF, 0x27, 0x28, 
  0x80, 0x2A, 0x10, 0x00, 0xF0, 0xD7, 0x82, 0x40, 0x15, 0x80, 0xA2, 0x00, 
  0xB0, 0xFF, 0x27, 0x14, 0xA0, 0x2A, 0x04, 0x01, 0xE0, 0x57, 0x07, 0x40, 
  0x15, 0x40, 0x29, 0x00, 0x60, 0xFF, 0x8D, 0x0A, 0x40, 0x15, 0x00, 0x00, 
  0xC0, 0xBD, 0x27, 0x50, 0x15, 0x48, 0x95, 0x00, 0x40, 0xFF, 0x8D, 0x02, 
  0xA0, 0x02, 0x00, 0x00, 0x80, 0xDF, 0x1F, 0xA8, 0x0A, 0x54, 0x15, 0x00, 
  0x00, 0xF7, 0x4F, 0x01, 0xA0, 0x00, 0x00, 0x00, 0x00, 0xFE, 0x1F, 0xA4, 
  0x0A, 0x55, 0x05, 0x00, 0x00, 0xF6, 0xBF, 0x10, 0x50, 0x00, 0x00, 0x00, 
  0x00, 0xB8, 0x3F, 0x82, 0x02, 0x55, 0x00, 0x00, 0x00, 0xE8, 0x3E, 0x48, 
  0x54, 0x00, 0x01, 0x00, 0x00, 0xE0, 0x7F, 0x21, 0x00, 0x15, 0x00, 0x00, 
  0x00, 0x40, 0xFD, 0x84, 0xAA, 0x00, 0x00, 0x00, 0x00, 0x00, 0xF7, 0x10, 
  0x00, 0x02, 0x00, 0x00, 0x00, 0x00, 0xBC, 0xA1, 0xAA, 0x08, 0x00, 0x00, 
  0x00, 0x00, 0xF0, 0x0B, 0x04, 0x00, 0x00, 0x00, 0x00, 0x00, 0x80, 0x56, 
  0x11, 0x00, 0x00, 0x00, 0x00, 0x00, 0x00, 0x08, 0x00, 0x00, 0x00, 0x00, 
  };
