#define moon6_width 60
#define moon6_height 60
static char moon6_bits[] = {
  0x00, 0x00, 0x00, 0x00, 0x00, 0x00, 0x00, 0x00, 0x00, 0x00, 0x00, 0x00, 
  0x05, 0x00, 0x00, 0x00, 0x00, 0x00, 0x00, 0x2A, 0x3D, 0x00, 0x00, 0x00, 
  0x00, 0x00, 0xA0, 0x40, 0xF8, 0x01, 0x00, 0x00, 0x00, 0x00, 0x08, 0x12, 
  0xF1, 0x0F, 0x00, 0x00, 0x00, 0x00, 0x22, 0x00, 0xD2, 0x1F, 0x00, 0x00, 
  0x00, 0x80, 0x88, 0x24, 0x60, 0x7B, 0x00, 0x00, 0x00, 0x00, 0x00, 0x91, 
  0xC4, 0xFF, 0x00, 0x00, 0x00, 0x10, 0x55, 0x40, 0x90, 0xAE, 0x03, 0x00, 
  0x00, 0x40, 0x00, 0x04, 0xC5, 0xFF, 0x03, 0x00, 0x00, 0x04, 0x82, 0x10, 
  0x10, 0x7F, 0x0F, 0x00, 0x00, 0x80, 0x28, 0x80, 0x82, 0xF7, 0x0B, 0x00, 
  0x00, 0x11, 0x02, 0x22, 0x28, 0xFE, 0x1F, 0x00, 0x00, 0x40, 0x80, 0x08, 
  0x04, 0xEB, 0x3F, 0x00, 0x00, 0x12, 0x08, 0x80, 0x00, 0xFE, 0x7F, 0x00, 
  0x40, 0x00, 0x21, 0x22, 0x24, 0xFE, 0x5B, 0x00, 0x00, 0x22, 0x08, 0x00, 
  0x81, 0xFA, 0xFF, 0x00, 0x80, 0x08, 0x82, 0x54, 0x10, 0xFC, 0xFF, 0x00, 
  0x00, 0x80, 0x20, 0x00, 0x02, 0xF6, 0xDE, 0x01, 0x20, 0x12, 0x00, 0x52, 
  0x20, 0xBC, 0xFF, 0x01, 0x80, 0x80, 0x24, 0x00, 0x85, 0xFC, 0xAF, 0x03, 
  0x08, 0x28, 0x80, 0x24, 0x10, 0xB4, 0xFF, 0x02, 0x40, 0x02, 0x0A, 0x80, 
  0x44, 0xFC, 0xDF, 0x03, 0x10, 0x80, 0x90, 0x08, 0x00, 0x59, 0x7F, 0x07, 
  0x04, 0x08, 0x22, 0x20, 0x51, 0xFC, 0xFD, 0x03, 0x40, 0x22, 0x84, 0x04, 
  0x04, 0x68, 0xFF, 0x07, 0x08, 0x90, 0x10, 0xA1, 0xA0, 0xF8, 0x7B, 0x07, 
  0x44, 0x04, 0x42, 0x00, 0x12, 0xDC, 0xFE, 0x05, 0x10, 0x21, 0x08, 0xA4, 
  0x08, 0xF9, 0xD7, 0x07, 0x04, 0x80, 0x10, 0x01, 0x22, 0x58, 0x7D, 0x07, 
  0x40, 0x04, 0x42, 0x28, 0x88, 0xF4, 0xB7, 0x07, 0x14, 0x10, 0x10, 0x80, 
  0x22, 0xF9, 0xFF, 0x07, 0x00, 0x41, 0x42, 0x15, 0x44, 0xFC, 0xAB, 0x05, 
  0x24, 0x04, 0x10, 0xA0, 0x08, 0xF9, 0xFF, 0x07, 0x10, 0x21, 0x45, 0x04, 
  0x51, 0xF8, 0xDB, 0x07, 0x44, 0x00, 0x00, 0x11, 0x02, 0xED, 0xEF, 0x06, 
  0x10, 0x14, 0x11, 0x48, 0x54, 0xBC, 0xFB, 0x03, 0x48, 0x41, 0x48, 0x82, 
  0x80, 0xFC, 0xDF, 0x07, 0x00, 0x14, 0x02, 0x50, 0x2A, 0xEC, 0xEF, 0x02, 
  0xA8, 0x80, 0x40, 0x04, 0x81, 0xBA, 0xF7, 0x03, 0x00, 0x25, 0x14, 0x50, 
  0x54, 0xFC, 0xFF, 0x01, 0x10, 0x00, 0x81, 0x04, 0x01, 0xFD, 0x7F, 0x01, 
  0x40, 0x45, 0x20, 0x50, 0x54, 0xFE, 0xFF, 0x01, 0x00, 0x10, 0x02, 0x82, 
  0x80, 0xFC, 0xDF, 0x00, 0x20, 0x05, 0x48, 0x28, 0x15, 0xFE, 0x7F, 0x00, 
  0x00, 0x48, 0x21, 0x41, 0xA0, 0xFE, 0xB7, 0x00, 0x80, 0x02, 0x04, 0x0A, 
  0x05, 0xFF, 0x3F, 0x00, 0x00, 0xA8, 0x50, 0x20, 0x28, 0xFF, 0x2B, 0x00, 
  0x00, 0x01, 0x85, 0x92, 0x42, 0xFF, 0x1F, 0x00, 0x00, 0x54, 0x10, 0x00, 
  0x88, 0xFF, 0x0D, 0x00, 0x00, 0x00, 0x25, 0x55, 0x91, 0x7D, 0x07, 0x00, 
  0x00, 0x54, 0x40, 0x00, 0xA2, 0xFF, 0x01, 0x00, 0x00, 0x00, 0x15, 0x22, 
  0xC4, 0xDF, 0x02, 0x00, 0x00, 0x20, 0xA0, 0x88, 0xD2, 0xBF, 0x00, 0x00, 
  0x00, 0x80, 0x04, 0x20, 0xE8, 0x37, 0x00, 0x00, 0x00, 0x00, 0x52, 0x89, 
  0xF2, 0x0D, 0x00, 0x00, 0x00, 0x00, 0x00, 0x20, 0x68, 0x07, 0x00, 0x00, 
  0x00, 0x00, 0x50, 0x95, 0xFA, 0x00, 0x00, 0x00, 0x00, 0x00, 0x00, 0x00, 
  0x1D, 0x00, 0x00, 0x00, 0x00, 0x00, 0x00, 0x24, 0x02, 0x00, 0x00, 0x00, 
  };
