#define moon28_width 60
#define moon28_height 60
static char moon28_bits[] = {
  0x00, 0x00, 0x00, 0x00, 0x00, 0x00, 0x00, 0x00, 0x00, 0x00, 0x00, 0x00, 
  0x00, 0x00, 0x00, 0x00, 0x00, 0x00, 0x00, 0xAA, 0x12, 0x00, 0x00, 0x00, 
  0x00, 0x00, 0x50, 0x01, 0x44, 0x00, 0x00, 0x00, 0x00, 0x00, 0x04, 0xA8, 
  0x10, 0x05, 0x00, 0x00, 0x00, 0x00, 0x91, 0x00, 0x42, 0x00, 0x00, 0x00, 
  0x00, 0x40, 0x04, 0x12, 0x08, 0x2A, 0x00, 0x00, 0x00, 0x20, 0xA1, 0x40, 
  0x81, 0x80, 0x00, 0x00, 0x00, 0x08, 0x08, 0x14, 0x24, 0x2A, 0x00, 0x00, 
  0x00, 0x04, 0x42, 0x80, 0x40, 0x80, 0x02, 0x00, 0x00, 0x22, 0x11, 0x02, 
  0x15, 0x2A, 0x00, 0x00, 0x00, 0x01, 0x04, 0x50, 0x20, 0x80, 0x0A, 0x00, 
  0x00, 0x91, 0x40, 0x02, 0x84, 0x24, 0x00, 0x00, 0x80, 0x00, 0x04, 0x00, 
  0x11, 0x81, 0x2A, 0x00, 0x40, 0x44, 0x20, 0x49, 0x00, 0x28, 0x00, 0x00, 
  0x20, 0x00, 0x09, 0x00, 0x92, 0x80, 0x2A, 0x00, 0x20, 0x12, 0x00, 0x52, 
  0x00, 0x24, 0x40, 0x00, 0x10, 0x40, 0x44, 0x00, 0x12, 0x41, 0x15, 0x00, 
  0x80, 0x04, 0x00, 0xA9, 0x40, 0x10, 0x40, 0x01, 0x08, 0x90, 0x24, 0x00, 
  0x02, 0x44, 0x0A, 0x00, 0x48, 0x04, 0x00, 0xA2, 0x08, 0x21, 0x40, 0x01, 
  0x08, 0x21, 0x49, 0x08, 0x20, 0x00, 0x15, 0x00, 0x04, 0x00, 0x10, 0x42, 
  0x8A, 0x44, 0x00, 0x01, 0x44, 0x24, 0x85, 0x00, 0x40, 0x10, 0x4A, 0x02, 
  0x04, 0x00, 0x10, 0x88, 0x10, 0x04, 0x10, 0x00, 0x24, 0x29, 0x45, 0x22, 
  0x44, 0x40, 0x42, 0x05, 0x02, 0x00, 0x90, 0x80, 0x20, 0x11, 0x08, 0x00, 
  0x94, 0xA4, 0x04, 0x10, 0x09, 0x00, 0xA1, 0x02, 0x02, 0x00, 0x10, 0x42, 
  0x24, 0x22, 0x04, 0x04, 0x8A, 0x08, 0x41, 0x10, 0x82, 0x08, 0x21, 0x01, 
  0x22, 0x20, 0x24, 0x82, 0x28, 0x40, 0x08, 0x02, 0x02, 0x02, 0x81, 0x28, 
  0x82, 0x12, 0x81, 0x00, 0x2A, 0x48, 0x10, 0x80, 0x28, 0x20, 0x24, 0x02, 
  0x84, 0x00, 0x42, 0x2A, 0x82, 0x42, 0x01, 0x01, 0x12, 0x04, 0x90, 0x80, 
  0x28, 0x08, 0x48, 0x04, 0x44, 0x50, 0x01, 0x14, 0x82, 0xA2, 0x02, 0x01, 
  0x14, 0x01, 0x24, 0x41, 0x14, 0x08, 0x20, 0x02, 0x44, 0x14, 0x00, 0x90, 
  0xA0, 0x82, 0x8A, 0x00, 0x08, 0x41, 0x25, 0x21, 0x05, 0x24, 0x40, 0x02, 
  0x28, 0x0A, 0x00, 0x04, 0xA8, 0x88, 0x12, 0x00, 0x88, 0x20, 0x49, 0xA8, 
  0x02, 0x21, 0x40, 0x01, 0x10, 0x02, 0x00, 0x02, 0x28, 0x0A, 0x15, 0x00, 
  0x90, 0x88, 0x24, 0x50, 0x45, 0x21, 0xA0, 0x00, 0x10, 0x21, 0x80, 0x04, 
  0x10, 0x44, 0x05, 0x00, 0x20, 0x0A, 0x09, 0xA8, 0x42, 0x09, 0x28, 0x00, 
  0x40, 0x40, 0xA0, 0x02, 0x14, 0x50, 0x05, 0x00, 0x40, 0x0A, 0x09, 0xA8, 
  0xA0, 0x0A, 0x10, 0x00, 0x80, 0x90, 0xA4, 0x02, 0x05, 0xA0, 0x02, 0x00, 
  0x00, 0x45, 0x00, 0x10, 0xA8, 0x0A, 0x14, 0x00, 0x00, 0x11, 0x55, 0x42, 
  0x01, 0xA0, 0x00, 0x00, 0x00, 0x42, 0x80, 0x08, 0xAA, 0x0A, 0x01, 0x00, 
  0x00, 0x14, 0x15, 0xA0, 0x00, 0x20, 0x00, 0x00, 0x00, 0x10, 0xA0, 0x0A, 
  0xAA, 0x8A, 0x00, 0x00, 0x00, 0xA0, 0x0A, 0xA0, 0x00, 0x20, 0x00, 0x00, 
  0x00, 0x00, 0xA0, 0x04, 0xAA, 0x0A, 0x00, 0x00, 0x00, 0x80, 0x0A, 0x50, 
  0x00, 0x00, 0x00, 0x00, 0x00, 0x00, 0xA0, 0x82, 0xAA, 0x02, 0x00, 0x00, 
  0x00, 0x00, 0x08, 0x28, 0x10, 0x00, 0x00, 0x00, 0x00, 0x00, 0x40, 0x85, 
  0x02, 0x00, 0x00, 0x00, 0x00, 0x00, 0x00, 0x20, 0x00, 0x00, 0x00, 0x00, 
  };
