#define moon26_width 60
#define moon26_height 60
static char moon26_bits[] = {
  0x00, 0x00, 0x00, 0x00, 0x00, 0x00, 0x00, 0x00, 0x00, 0x00, 0x00, 0x00, 
  0x00, 0x00, 0x00, 0x00, 0x00, 0x00, 0xC0, 0xAA, 0x12, 0x00, 0x00, 0x00, 
  0x00, 0x00, 0x38, 0x04, 0x44, 0x00, 0x00, 0x00, 0x00, 0x00, 0x8E, 0xA0, 
  0x10, 0x05, 0x00, 0x00, 0x00, 0x80, 0x23, 0x04, 0x42, 0x00, 0x00, 0x00, 
  0x00, 0xC0, 0x05, 0x91, 0x08, 0x2A, 0x00, 0x00, 0x00, 0x70, 0x21, 0x20, 
  0x80, 0x80, 0x00, 0x00, 0x00, 0x68, 0x88, 0x84, 0x12, 0x2A, 0x00, 0x00, 
  0x00, 0x3C, 0x02, 0x10, 0x48, 0x80, 0x02, 0x00, 0x00, 0x36, 0x90, 0x84, 
  0x02, 0x15, 0x00, 0x00, 0x00, 0x1D, 0x05, 0x00, 0x28, 0x40, 0x05, 0x00, 
  0x00, 0x17, 0x40, 0x22, 0x42, 0x12, 0x08, 0x00, 0x80, 0x8F, 0x08, 0x80, 
  0x08, 0x40, 0x11, 0x00, 0xC0, 0x02, 0x82, 0x08, 0x80, 0x04, 0x22, 0x00, 
  0xE0, 0x27, 0x20, 0x20, 0x11, 0x50, 0x04, 0x00, 0xA0, 0x82, 0x08, 0x02, 
  0x04, 0x21, 0xA9, 0x00, 0xF0, 0x13, 0x80, 0x28, 0x41, 0x88, 0x00, 0x00, 
  0x50, 0x05, 0x09, 0x40, 0x10, 0x20, 0xAA, 0x00, 0xF0, 0x21, 0x20, 0x12, 
  0x01, 0x09, 0x00, 0x01, 0xB8, 0x09, 0x81, 0x40, 0x44, 0xA0, 0x0A, 0x00, 
  0xD8, 0x42, 0x24, 0x08, 0x11, 0x04, 0xA0, 0x02, 0xFC, 0x20, 0x10, 0x22, 
  0x80, 0x00, 0x05, 0x00, 0xD4, 0x08, 0x05, 0x00, 0x14, 0x12, 0x88, 0x02, 
  0xFC, 0x00, 0x50, 0x44, 0x40, 0x40, 0x12, 0x00, 0xAC, 0x24, 0x85, 0x10, 
  0x11, 0x02, 0x40, 0x05, 0xFC, 0x10, 0x10, 0x42, 0x44, 0x90, 0x14, 0x00, 
  0xAE, 0x40, 0x82, 0x00, 0x11, 0x01, 0x40, 0x05, 0xFC, 0x04, 0x28, 0x28, 
  0x44, 0x48, 0x12, 0x00, 0x5E, 0x90, 0x00, 0x02, 0x11, 0x00, 0x80, 0x02, 
  0xF6, 0x00, 0x52, 0x10, 0x42, 0xA9, 0x04, 0x04, 0x5C, 0x22, 0x00, 0x42, 
  0x14, 0x02, 0x91, 0x00, 0xFE, 0x08, 0x49, 0x88, 0x40, 0x50, 0x00, 0x05, 
  0x74, 0x00, 0x80, 0x24, 0x95, 0x04, 0x25, 0x00, 0xFC, 0x44, 0x29, 0x10, 
  0x00, 0x21, 0x80, 0x02, 0xBC, 0x00, 0x80, 0x84, 0x2A, 0x84, 0x22, 0x04, 
  0xFC, 0x14, 0x02, 0x10, 0x40, 0x11, 0x88, 0x00, 0xEC, 0x41, 0x28, 0xA1, 
  0x0A, 0x42, 0x01, 0x01, 0xF8, 0x14, 0x01, 0x04, 0x50, 0x04, 0x52, 0x02, 
  0xF8, 0x01, 0x44, 0x50, 0x85, 0x48, 0x04, 0x00, 0xB8, 0x93, 0x10, 0x02, 
  0x28, 0x11, 0xA1, 0x02, 0xF0, 0x01, 0x81, 0xA8, 0x82, 0x44, 0x04, 0x00, 
  0xB0, 0x4B, 0x24, 0x00, 0x29, 0x12, 0xA9, 0x00, 0xE0, 0x03, 0x00, 0xAA, 
  0x80, 0x40, 0x00, 0x00, 0x60, 0x17, 0x89, 0x00, 0x2A, 0x2A, 0x55, 0x00, 
  0xC0, 0x47, 0x20, 0xAA, 0x40, 0x00, 0x00, 0x00, 0xC0, 0x0E, 0x89, 0x00, 
  0x8A, 0xAA, 0x0A, 0x00, 0x80, 0x4F, 0x22, 0x52, 0x10, 0x00, 0x10, 0x00, 
  0x00, 0x1B, 0x88, 0x00, 0xA5, 0xAA, 0x02, 0x00, 0x00, 0xBE, 0x22, 0x54, 
  0x00, 0x40, 0x04, 0x00, 0x00, 0x2E, 0x88, 0x00, 0x55, 0x15, 0x00, 0x00, 
  0x00, 0x78, 0x22, 0x12, 0x00, 0x20, 0x01, 0x00, 0x00, 0xF0, 0x84, 0x40, 
  0x55, 0x05, 0x00, 0x00, 0x00, 0xE0, 0x51, 0x14, 0x00, 0x48, 0x00, 0x00, 
  0x00, 0x80, 0x05, 0x41, 0x55, 0x05, 0x00, 0x00, 0x00, 0x00, 0x57, 0x10, 
  0x20, 0x00, 0x00, 0x00, 0x00, 0x00, 0x0C, 0x49, 0x95, 0x12, 0x00, 0x00, 
  0x00, 0x00, 0x70, 0x04, 0x00, 0x00, 0x00, 0x00, 0x00, 0x00, 0x80, 0x51, 
  0x55, 0x00, 0x00, 0x00, 0x00, 0x00, 0x00, 0x04, 0x00, 0x00, 0x00, 0x00, 
  };
