#define moon1_width 60
#define moon1_height 60
static unsigned char moon1_bits[] = {
   0x00, 0x00, 0x00, 0x00, 0x00, 0x00, 0x00, 0x00, 0x00, 0x00, 0x00, 0x00,
   0x00, 0x00, 0x00, 0x00, 0x00, 0x00, 0x00, 0xaa, 0x12, 0x00, 0x00, 0x00,
   0x00, 0x00, 0xa0, 0x00, 0x44, 0x00, 0x00, 0x00, 0x00, 0x00, 0x08, 0x52,
   0x11, 0x05, 0x00, 0x00, 0x00, 0x00, 0x22, 0x00, 0x44, 0x00, 0x00, 0x00,
   0x00, 0x80, 0x88, 0x24, 0x00, 0x2a, 0x00, 0x00, 0x00, 0x00, 0x00, 0x91,
   0x24, 0x80, 0x00, 0x00, 0x00, 0x10, 0x55, 0x00, 0x81, 0x2a, 0x00, 0x00,
   0x00, 0x40, 0x00, 0x24, 0x24, 0x80, 0x02, 0x00, 0x00, 0x04, 0x82, 0x80,
   0x88, 0x14, 0x00, 0x00, 0x00, 0x80, 0x28, 0x08, 0x22, 0xa0, 0x0a, 0x00,
   0x00, 0x11, 0x02, 0x42, 0x88, 0x04, 0x00, 0x00, 0x00, 0x40, 0x80, 0x00,
   0x00, 0xa0, 0x2a, 0x00, 0x00, 0x12, 0x08, 0x88, 0x4a, 0x0a, 0x00, 0x00,
   0x40, 0x00, 0x21, 0x22, 0x00, 0xa0, 0x2a, 0x00, 0x00, 0x22, 0x08, 0x00,
   0x10, 0x01, 0x40, 0x00, 0x80, 0x08, 0x82, 0x94, 0x02, 0xa8, 0x8a, 0x00,
   0x00, 0x80, 0x20, 0x20, 0x48, 0x02, 0x10, 0x00, 0x20, 0x12, 0x00, 0x82,
   0x02, 0x50, 0x45, 0x01, 0x80, 0x80, 0x24, 0x20, 0x40, 0x00, 0x00, 0x00,
   0x08, 0x28, 0x80, 0x84, 0x14, 0x12, 0x95, 0x02, 0x40, 0x02, 0x0a, 0x10,
   0x80, 0x40, 0x00, 0x00, 0x10, 0x80, 0x90, 0x80, 0x48, 0x04, 0x4a, 0x01,
   0x04, 0x08, 0x22, 0x24, 0x00, 0x10, 0x10, 0x02, 0x40, 0x22, 0x84, 0x00,
   0xa9, 0x80, 0x44, 0x00, 0x08, 0x90, 0x10, 0x52, 0x00, 0x22, 0x10, 0x05,
   0x44, 0x04, 0x42, 0x00, 0x55, 0x08, 0x45, 0x00, 0x10, 0x21, 0x08, 0x22,
   0x00, 0x00, 0x00, 0x05, 0x04, 0x80, 0x90, 0x08, 0x95, 0xa2, 0x48, 0x00,
   0x40, 0x04, 0x42, 0x40, 0x20, 0x08, 0x02, 0x02, 0x14, 0x10, 0x10, 0x14,
   0x85, 0xa2, 0x90, 0x04, 0x00, 0x41, 0x42, 0x42, 0x28, 0x00, 0x02, 0x00,
   0x24, 0x04, 0x10, 0x08, 0x81, 0xa4, 0x20, 0x05, 0x10, 0x21, 0x45, 0x22,
   0x2a, 0x01, 0x02, 0x00, 0x44, 0x00, 0x80, 0x88, 0x40, 0x54, 0x48, 0x05,
   0x10, 0x14, 0x11, 0x20, 0x0a, 0x01, 0x01, 0x00, 0x48, 0x41, 0x88, 0x88,
   0x50, 0x44, 0x4a, 0x05, 0x00, 0x14, 0x02, 0x22, 0x02, 0x11, 0x80, 0x00,
   0xa8, 0x80, 0x10, 0x88, 0x54, 0x84, 0x12, 0x02, 0x00, 0x25, 0x44, 0x20,
   0x82, 0x08, 0xa0, 0x00, 0x10, 0x00, 0x01, 0x89, 0x28, 0xa2, 0x0a, 0x01,
   0x40, 0x45, 0x10, 0x10, 0x81, 0x04, 0x50, 0x00, 0x00, 0x10, 0x82, 0x24,
   0x2a, 0x51, 0x05, 0x00, 0x20, 0x05, 0x10, 0x40, 0x40, 0x84, 0x28, 0x00,
   0x00, 0x48, 0x21, 0x95, 0x0a, 0x51, 0x02, 0x00, 0x80, 0x02, 0x44, 0x00,
   0x50, 0x04, 0x08, 0x00, 0x00, 0xa8, 0x08, 0x55, 0x05, 0x51, 0x21, 0x00,
   0x00, 0x01, 0x51, 0x00, 0x50, 0x04, 0x0a, 0x00, 0x00, 0x54, 0x04, 0x49,
   0x05, 0x51, 0x00, 0x00, 0x00, 0x00, 0x51, 0x20, 0x50, 0x84, 0x04, 0x00,
   0x00, 0x54, 0x04, 0x0a, 0x05, 0x11, 0x00, 0x00, 0x00, 0x00, 0x51, 0x40,
   0xa8, 0x24, 0x01, 0x00, 0x00, 0x20, 0x84, 0x12, 0x01, 0x08, 0x00, 0x00,
   0x00, 0x80, 0x28, 0x40, 0xaa, 0x02, 0x00, 0x00, 0x00, 0x00, 0x82, 0x24,
   0x00, 0x08, 0x00, 0x00, 0x00, 0x00, 0x28, 0x90, 0xaa, 0x02, 0x00, 0x00,
   0x00, 0x00, 0x80, 0x02, 0x00, 0x00, 0x00, 0x00, 0x00, 0x00, 0x00, 0x54,
   0x15, 0x00, 0x00, 0x00, 0x00, 0x00, 0x00, 0x00, 0x00, 0x00, 0x00, 0x00 };
