#define moon27_width 60
#define moon27_height 60
static char moon27_bits[] = {
  0x00, 0x00, 0x00, 0x00, 0x00, 0x00, 0x00, 0x00, 0x00, 0x00, 0x00, 0x00, 
  0x00, 0x00, 0x00, 0x00, 0x00, 0x00, 0x40, 0xAA, 0x12, 0x00, 0x00, 0x00, 
  0x00, 0x00, 0x28, 0x01, 0x44, 0x00, 0x00, 0x00, 0x00, 0x00, 0x86, 0xA8, 
  0x10, 0x05, 0x00, 0x00, 0x00, 0x80, 0x11, 0x00, 0x42, 0x00, 0x00, 0x00, 
  0x00, 0x40, 0x84, 0x24, 0x08, 0x2A, 0x00, 0x00, 0x00, 0x30, 0x21, 0x90, 
  0x40, 0x80, 0x00, 0x00, 0x00, 0x28, 0x88, 0x02, 0x09, 0x15, 0x00, 0x00, 
  0x00, 0x0C, 0x02, 0x20, 0x22, 0x40, 0x01, 0x00, 0x00, 0x86, 0x90, 0x88, 
  0x88, 0x0A, 0x02, 0x00, 0x00, 0x23, 0x02, 0x00, 0x24, 0xA0, 0x08, 0x00, 
  0x00, 0x01, 0x48, 0x12, 0x81, 0x04, 0x11, 0x00, 0x80, 0x89, 0x00, 0x00, 
  0x08, 0x20, 0x02, 0x00, 0xC0, 0x20, 0x22, 0xA2, 0x20, 0x49, 0x14, 0x00, 
  0xE0, 0x04, 0x00, 0x00, 0x02, 0x80, 0x20, 0x00, 0xA0, 0x80, 0x48, 0x12, 
  0x48, 0x14, 0x45, 0x00, 0x70, 0x08, 0x00, 0x48, 0x02, 0x20, 0x88, 0x00, 
  0x50, 0x20, 0x49, 0x82, 0x20, 0x41, 0x11, 0x00, 0x30, 0x0A, 0x00, 0x20, 
  0x02, 0x14, 0x44, 0x01, 0x18, 0x80, 0x24, 0x88, 0x88, 0x80, 0x08, 0x00, 
  0x38, 0x11, 0x80, 0x42, 0x20, 0x20, 0x82, 0x02, 0x0C, 0x40, 0x0A, 0x10, 
  0x02, 0x09, 0x24, 0x00, 0x9C, 0x04, 0x10, 0x00, 0x28, 0x80, 0x08, 0x01, 
  0x14, 0x90, 0xA2, 0x22, 0x81, 0x24, 0x42, 0x02, 0x0C, 0x21, 0x04, 0x08, 
  0x10, 0x00, 0x08, 0x00, 0x5C, 0x08, 0x50, 0x42, 0xA2, 0x88, 0x50, 0x05, 
  0x0E, 0x20, 0x05, 0x20, 0x09, 0x02, 0x02, 0x00, 0x0C, 0x09, 0x10, 0x01, 
  0x20, 0x20, 0x48, 0x05, 0x1E, 0x80, 0x40, 0x48, 0x8A, 0x88, 0x00, 0x00, 
  0x8E, 0x24, 0x04, 0x10, 0x21, 0x42, 0x92, 0x02, 0x0C, 0x00, 0x50, 0x45, 
  0x84, 0x10, 0x00, 0x04, 0x96, 0x88, 0x02, 0x10, 0x29, 0x42, 0x49, 0x01, 
  0x2C, 0x00, 0x50, 0x42, 0x40, 0x10, 0x02, 0x04, 0x1E, 0x12, 0x01, 0x08, 
  0x95, 0x42, 0x20, 0x01, 0x8C, 0x40, 0x44, 0x91, 0x00, 0x84, 0x82, 0x00, 
  0x1C, 0x04, 0x10, 0x24, 0xAA, 0x28, 0x08, 0x02, 0x58, 0x29, 0x81, 0x80, 
  0x00, 0x01, 0xA1, 0x00, 0x1C, 0x00, 0x24, 0x28, 0x2A, 0x8A, 0x04, 0x01, 
  0xB8, 0x4A, 0x02, 0x82, 0x40, 0x20, 0x50, 0x00, 0x38, 0x00, 0x91, 0x28, 
  0x8A, 0x0A, 0x05, 0x01, 0x30, 0x25, 0x00, 0x80, 0x10, 0x20, 0x52, 0x00, 
  0x30, 0x00, 0x12, 0x12, 0xA5, 0x4A, 0x80, 0x00, 0x60, 0x25, 0x84, 0x20, 
  0x00, 0x90, 0x2A, 0x00, 0xE0, 0x88, 0x20, 0x94, 0xAA, 0x0A, 0x00, 0x00, 
  0xC0, 0x00, 0x81, 0x40, 0x00, 0xA0, 0x2A, 0x00, 0xC0, 0x2A, 0x14, 0x15, 
  0x55, 0x05, 0x00, 0x00, 0x80, 0x81, 0x20, 0x40, 0x00, 0x52, 0x25, 0x00, 
  0x00, 0x17, 0x45, 0x09, 0x55, 0x21, 0x08, 0x00, 0x00, 0x46, 0x08, 0x20, 
  0x00, 0x84, 0x02, 0x00, 0x00, 0x86, 0xA2, 0x8A, 0xAA, 0x28, 0x00, 0x00, 
  0x00, 0x18, 0x08, 0x20, 0x00, 0x41, 0x00, 0x00, 0x00, 0x38, 0x51, 0x82, 
  0x2A, 0x0A, 0x02, 0x00, 0x00, 0x60, 0x04, 0x28, 0x40, 0x90, 0x00, 0x00, 
  0x00, 0xC0, 0xA8, 0x82, 0x2A, 0x05, 0x00, 0x00, 0x00, 0x00, 0x03, 0x10, 
  0x80, 0x00, 0x00, 0x00, 0x00, 0x00, 0xAC, 0x44, 0x15, 0x02, 0x00, 0x00, 
  0x00, 0x00, 0x10, 0x11, 0xA0, 0x00, 0x00, 0x00, 0x00, 0x00, 0x40, 0x44, 
  0x05, 0x00, 0x00, 0x00, 0x00, 0x00, 0x00, 0x00, 0x00, 0x00, 0x00, 0x00, 
  };
