#define moon4_width 60
#define moon4_height 60
static char moon4_bits[] = {
  0x00, 0x00, 0x00, 0x00, 0x00, 0x00, 0x00, 0x00, 0x00, 0x00, 0x00, 0x00, 
  0x00, 0x00, 0x00, 0x00, 0x00, 0x00, 0x00, 0xAA, 0x3A, 0x00, 0x00, 0x00, 
  0x00, 0x00, 0xA0, 0x00, 0xC0, 0x01, 0x00, 0x00, 0x00, 0x00, 0x08, 0x52, 
  0x15, 0x0F, 0x00, 0x00, 0x00, 0x00, 0x22, 0x00, 0x40, 0x1C, 0x00, 0x00, 
  0x00, 0x80, 0x88, 0x24, 0x02, 0x78, 0x00, 0x00, 0x00, 0x00, 0x00, 0x91, 
  0x88, 0xF2, 0x00, 0x00, 0x00, 0x10, 0x55, 0x00, 0x22, 0xA0, 0x03, 0x00, 
  0x00, 0x40, 0x00, 0xA4, 0x80, 0xC4, 0x03, 0x00, 0x00, 0x04, 0x82, 0x00, 
  0x2A, 0x48, 0x0F, 0x00, 0x00, 0x80, 0x28, 0x08, 0x80, 0xA2, 0x0B, 0x00, 
  0x00, 0x11, 0x02, 0x42, 0x2A, 0x00, 0x1F, 0x00, 0x00, 0x40, 0x80, 0x00, 
  0x00, 0x24, 0x3E, 0x00, 0x00, 0x12, 0x08, 0x48, 0x89, 0x40, 0x7F, 0x00, 
  0x40, 0x00, 0x21, 0x02, 0x00, 0x14, 0x6C, 0x00, 0x00, 0x22, 0x08, 0x10, 
  0x22, 0x41, 0xFA, 0x00, 0x80, 0x08, 0x82, 0x44, 0x08, 0x90, 0xFC, 0x00, 
  0x00, 0x80, 0x20, 0x10, 0x81, 0x00, 0xB8, 0x01, 0x20, 0x12, 0x00, 0x42, 
  0x24, 0x54, 0xF9, 0x01, 0x80, 0x80, 0x24, 0x00, 0x01, 0x00, 0xD2, 0x03, 
  0x08, 0x28, 0x80, 0x28, 0x88, 0x24, 0x78, 0x03, 0x40, 0x02, 0x0A, 0x82, 
  0x20, 0x00, 0xD5, 0x03, 0x10, 0x80, 0x90, 0x20, 0x82, 0x44, 0xF0, 0x06, 
  0x04, 0x08, 0x22, 0x08, 0x28, 0x00, 0xB4, 0x03, 0x40, 0x22, 0x04, 0x81, 
  0x80, 0x88, 0xE0, 0x07, 0x08, 0x90, 0x50, 0x10, 0x12, 0x22, 0xF2, 0x07, 
  0x44, 0x04, 0x02, 0x42, 0x20, 0x00, 0xE0, 0x06, 0x10, 0x21, 0x88, 0x80, 
  0x8A, 0x88, 0xE4, 0x07, 0x04, 0x80, 0x10, 0x28, 0x20, 0x42, 0x60, 0x07, 
  0x40, 0x04, 0x42, 0x02, 0x85, 0x00, 0xE9, 0x07, 0x14, 0x10, 0x10, 0x50, 
  0x28, 0x52, 0xA0, 0x0D, 0x00, 0x41, 0x42, 0x02, 0x41, 0x80, 0xE2, 0x07, 
  0x24, 0x04, 0x90, 0x28, 0x8A, 0x14, 0xB0, 0x07, 0x10, 0x21, 0x05, 0x80, 
  0x10, 0xA1, 0xE2, 0x05, 0x44, 0x00, 0x40, 0x2A, 0x22, 0x04, 0xF0, 0x07, 
  0x10, 0x14, 0x11, 0x81, 0x44, 0x91, 0xA2, 0x03, 0x48, 0x41, 0x08, 0x50, 
  0x08, 0x02, 0xF4, 0x07, 0x00, 0x14, 0x42, 0x04, 0x51, 0xA4, 0xF0, 0x02, 
  0xA8, 0x80, 0x10, 0x50, 0x82, 0x00, 0xF2, 0x03, 0x00, 0x25, 0x04, 0x05, 
  0x14, 0x95, 0x78, 0x01, 0x10, 0x00, 0x41, 0x50, 0x21, 0x20, 0xFA, 0x01, 
  0x40, 0x45, 0x10, 0x00, 0x4A, 0x95, 0xB8, 0x01, 0x00, 0x10, 0x02, 0x55, 
  0x00, 0x00, 0xFD, 0x00, 0x20, 0x05, 0x10, 0x80, 0xAA, 0x2A, 0xBC, 0x00, 
  0x00, 0x48, 0xA1, 0x2A, 0x00, 0x41, 0x7D, 0x00, 0x80, 0x02, 0x04, 0x80, 
  0xAA, 0x14, 0x2E, 0x00, 0x00, 0xA8, 0xA8, 0x12, 0x00, 0xA0, 0x1E, 0x00, 
  0x00, 0x01, 0x01, 0xA0, 0xAA, 0x0A, 0x17, 0x00, 0x00, 0x54, 0x54, 0x0A, 
  0x00, 0x90, 0x0F, 0x00, 0x00, 0x00, 0x01, 0xA0, 0xAA, 0xC2, 0x05, 0x00, 
  0x00, 0x54, 0x54, 0x09, 0x00, 0xD4, 0x03, 0x00, 0x00, 0x00, 0x01, 0x40, 
  0xAA, 0x60, 0x01, 0x00, 0x00, 0x20, 0x54, 0x15, 0x01, 0xF5, 0x00, 0x00, 
  0x00, 0x80, 0x00, 0x40, 0x54, 0x1C, 0x00, 0x00, 0x00, 0x00, 0xAA, 0x10, 
  0x81, 0x2A, 0x00, 0x00, 0x00, 0x00, 0x00, 0x45, 0x14, 0x07, 0x00, 0x00, 
  0x00, 0x00, 0x50, 0x10, 0xE1, 0x00, 0x00, 0x00, 0x00, 0x00, 0x00, 0x45, 
  0x1A, 0x00, 0x00, 0x00, 0x00, 0x00, 0x00, 0x00, 0x00, 0x00, 0x00, 0x00, 
  };
