#define moon25_width 60
#define moon25_height 60
static char moon25_bits[] = {
  0x00, 0x00, 0x00, 0x00, 0x00, 0x00, 0x00, 0x00, 0x00, 0x00, 0x00, 0x04, 
  0x00, 0x00, 0x00, 0x00, 0x00, 0x00, 0xC0, 0x53, 0x05, 0x00, 0x00, 0x00, 
  0x00, 0x00, 0x78, 0x08, 0xA8, 0x00, 0x00, 0x00, 0x00, 0x00, 0x3E, 0xA1, 
  0x02, 0x02, 0x00, 0x00, 0x00, 0x80, 0x17, 0x00, 0x48, 0x04, 0x00, 0x00, 
  0x00, 0xC0, 0x8D, 0x14, 0x02, 0x11, 0x00, 0x00, 0x00, 0x70, 0x27, 0xA0, 
  0x10, 0xA4, 0x00, 0x00, 0x00, 0xE8, 0x85, 0x02, 0x42, 0x00, 0x00, 0x00, 
  0x00, 0xBC, 0x23, 0x48, 0x08, 0x55, 0x01, 0x00, 0x00, 0x76, 0x09, 0x00, 
  0x21, 0x00, 0x04, 0x00, 0x00, 0xDD, 0x81, 0x44, 0x94, 0xAA, 0x08, 0x00, 
  0x00, 0xF7, 0x24, 0x10, 0x00, 0x00, 0x01, 0x00, 0x80, 0xBF, 0x00, 0x04, 
  0x25, 0x51, 0x2A, 0x00, 0xC0, 0x6A, 0x80, 0x00, 0x00, 0x04, 0x00, 0x00, 
  0xE0, 0x7F, 0x14, 0x50, 0x24, 0xA0, 0x2A, 0x00, 0xA0, 0x36, 0x80, 0x04, 
  0x81, 0x08, 0x40, 0x00, 0xF0, 0x3F, 0x21, 0x10, 0x08, 0xA2, 0x8A, 0x00, 
  0x50, 0x15, 0x04, 0xA2, 0x42, 0x00, 0x10, 0x00, 0xF0, 0x3F, 0x20, 0x00, 
  0x00, 0xA8, 0x42, 0x01, 0xB8, 0x9D, 0x84, 0x24, 0x89, 0x00, 0x04, 0x00, 
  0xD8, 0x17, 0x20, 0x40, 0x20, 0x12, 0x91, 0x02, 0x7C, 0x9D, 0x0A, 0x14, 
  0x12, 0x00, 0x04, 0x00, 0xD4, 0x1F, 0x80, 0x00, 0x40, 0x49, 0x92, 0x02, 
  0x7C, 0x0B, 0x15, 0x40, 0x04, 0x00, 0x00, 0x00, 0xEC, 0x5F, 0x40, 0x09, 
  0x51, 0x44, 0xAA, 0x02, 0xBC, 0x0A, 0x14, 0x20, 0x00, 0x01, 0x00, 0x04, 
  0xEE, 0x9F, 0x80, 0x44, 0x55, 0x90, 0xA4, 0x00, 0xBC, 0x0D, 0x12, 0x00, 
  0x00, 0x04, 0x00, 0x05, 0xDE, 0x8F, 0x40, 0x12, 0x95, 0x20, 0x49, 0x00, 
  0x76, 0x1B, 0x08, 0x20, 0x20, 0x82, 0x00, 0x05, 0xFC, 0x0D, 0xA1, 0x44, 
  0x85, 0x28, 0x24, 0x00, 0xAE, 0x4F, 0x08, 0x08, 0x28, 0x82, 0x00, 0x05, 
  0xFC, 0x1A, 0x42, 0x52, 0x41, 0x20, 0x49, 0x00, 0xBC, 0x0F, 0x80, 0x00, 
  0x8A, 0x44, 0x00, 0x05, 0xFC, 0x4E, 0x12, 0x94, 0x10, 0x11, 0x25, 0x00, 
  0xEC, 0x1B, 0x40, 0x21, 0x22, 0x04, 0x80, 0x02, 0xFC, 0x1E, 0x09, 0x80, 
  0x44, 0xA1, 0x4A, 0x00, 0xF8, 0x5F, 0x20, 0x14, 0x11, 0x0A, 0x00, 0x01, 
  0xB8, 0x1F, 0x0A, 0x21, 0x44, 0x80, 0x52, 0x02, 0xF8, 0x9F, 0x00, 0x48, 
  0x91, 0x2A, 0x80, 0x00, 0xB0, 0x37, 0x24, 0x01, 0x22, 0x80, 0x2A, 0x00, 
  0x70, 0x3F, 0x00, 0xA8, 0x88, 0x2A, 0x80, 0x00, 0xE0, 0x2F, 0x49, 0x02, 
  0x11, 0x40, 0x15, 0x00, 0xA0, 0x7F, 0x00, 0x28, 0xA2, 0x0A, 0x20, 0x00, 
  0xC0, 0x3E, 0xA9, 0x42, 0x04, 0x50, 0x05, 0x00, 0xC0, 0xEF, 0x00, 0x88, 
  0xA8, 0x0A, 0x28, 0x00, 0x80, 0xFD, 0x54, 0x21, 0x02, 0xA0, 0x02, 0x00, 
  0x00, 0xFF, 0x00, 0x84, 0xA8, 0x0A, 0x08, 0x00, 0x00, 0xF6, 0x55, 0x10, 
  0x01, 0x50, 0x01, 0x00, 0x00, 0xBE, 0x03, 0x25, 0xAA, 0x02, 0x04, 0x00, 
  0x00, 0xF8, 0x53, 0x80, 0x00, 0x54, 0x00, 0x00, 0x00, 0xB0, 0x07, 0x49, 
  0xAA, 0x00, 0x01, 0x00, 0x00, 0xE0, 0x2E, 0x10, 0x00, 0x15, 0x00, 0x00, 
  0x00, 0xC0, 0x8F, 0x42, 0x55, 0x00, 0x00, 0x00, 0x00, 0x00, 0x3D, 0x10, 
  0x80, 0x0A, 0x00, 0x00, 0x00, 0x00, 0x7A, 0x42, 0x55, 0x00, 0x00, 0x00, 
  0x00, 0x00, 0xD0, 0x14, 0x00, 0x01, 0x00, 0x00, 0x00, 0x00, 0x40, 0xA3, 
  0x2A, 0x00, 0x00, 0x00, 0x00, 0x00, 0x00, 0x04, 0x00, 0x00, 0x00, 0x00, 
  };
