#define moon5_width 60
#define moon5_height 60
static char moon5_bits[] = {
  0x00, 0x00, 0x00, 0x00, 0x00, 0x00, 0x00, 0x00, 0x00, 0x00, 0x00, 0x00, 
  0x02, 0x00, 0x00, 0x00, 0x00, 0x00, 0x00, 0xAA, 0x3C, 0x00, 0x00, 0x00, 
  0x00, 0x00, 0xA0, 0x00, 0xE1, 0x01, 0x00, 0x00, 0x00, 0x00, 0x08, 0x52, 
  0xC8, 0x0F, 0x00, 0x00, 0x00, 0x00, 0x22, 0x00, 0x02, 0x1F, 0x00, 0x00, 
  0x00, 0x80, 0x88, 0x24, 0x10, 0x77, 0x00, 0x00, 0x00, 0x00, 0x00, 0x91, 
  0x04, 0xFC, 0x00, 0x00, 0x00, 0x10, 0x55, 0x00, 0xA1, 0xBC, 0x03, 0x00, 
  0x00, 0x40, 0x00, 0x24, 0x04, 0xF8, 0x03, 0x00, 0x00, 0x04, 0x82, 0x80, 
  0x28, 0x79, 0x0F, 0x00, 0x00, 0x80, 0x28, 0x08, 0x42, 0xF4, 0x0B, 0x00, 
  0x00, 0x11, 0x02, 0x42, 0x08, 0xE0, 0x1F, 0x00, 0x00, 0x40, 0x80, 0x00, 
  0x40, 0xE1, 0x3F, 0x00, 0x00, 0x12, 0x08, 0x88, 0x0A, 0xE8, 0x77, 0x00, 
  0x40, 0x00, 0x21, 0x22, 0x00, 0xC2, 0x7F, 0x00, 0x00, 0x22, 0x08, 0x00, 
  0x90, 0xD0, 0xDF, 0x00, 0x80, 0x08, 0x82, 0x94, 0x02, 0xC0, 0xF7, 0x00, 
  0x00, 0x80, 0x20, 0x20, 0x48, 0x92, 0xFD, 0x01, 0x20, 0x12, 0x00, 0x82, 
  0x02, 0x80, 0xDF, 0x01, 0x80, 0x80, 0x24, 0x20, 0x80, 0xA8, 0x7F, 0x03, 
  0x08, 0x28, 0x80, 0x84, 0x14, 0x00, 0xDF, 0x03, 0x40, 0x02, 0x0A, 0x10, 
  0x40, 0x89, 0xFF, 0x03, 0x10, 0x80, 0x90, 0x80, 0x08, 0x00, 0x5F, 0x03, 
  0x04, 0x08, 0x22, 0x24, 0x20, 0x12, 0xFF, 0x07, 0x40, 0x22, 0x84, 0x00, 
  0x49, 0x00, 0xFD, 0x03, 0x08, 0x90, 0x10, 0x52, 0x00, 0x11, 0x77, 0x07, 
  0x44, 0x04, 0x42, 0x00, 0x55, 0x40, 0xFD, 0x07, 0x10, 0x21, 0x08, 0x22, 
  0x00, 0x04, 0xEF, 0x07, 0x04, 0x80, 0x90, 0x08, 0x95, 0x10, 0xBD, 0x06, 
  0x40, 0x04, 0x42, 0x40, 0x20, 0x42, 0xF7, 0x07, 0x14, 0x10, 0x10, 0x14, 
  0x85, 0x10, 0xDB, 0x07, 0x00, 0x41, 0x42, 0x42, 0x28, 0x42, 0xBF, 0x05, 
  0x24, 0x04, 0x10, 0x08, 0x81, 0x10, 0xEB, 0x07, 0x10, 0x21, 0x45, 0x22, 
  0x2A, 0x42, 0xFF, 0x07, 0x44, 0x00, 0x80, 0x88, 0x40, 0x14, 0xD7, 0x06, 
  0x10, 0x14, 0x11, 0x20, 0x8A, 0x00, 0xFF, 0x03, 0x48, 0x41, 0x88, 0x88, 
  0x10, 0xA5, 0xB7, 0x07, 0x00, 0x14, 0x02, 0x22, 0x22, 0x08, 0xFF, 0x01, 
  0xA8, 0x80, 0x10, 0x88, 0x44, 0x81, 0xF7, 0x03, 0x00, 0x25, 0x44, 0x20, 
  0x12, 0x8A, 0xBF, 0x01, 0x10, 0x00, 0x01, 0x89, 0xA0, 0x90, 0xFF, 0x01, 
  0x40, 0x45, 0x10, 0x10, 0x05, 0xA2, 0xFF, 0x00, 0x00, 0x10, 0x82, 0x24, 
  0xA8, 0xC4, 0xDF, 0x00, 0x20, 0x05, 0x10, 0x40, 0x01, 0xC9, 0x7F, 0x00, 
  0x00, 0x48, 0x21, 0x15, 0x2A, 0xD0, 0x5F, 0x00, 0x80, 0x02, 0x44, 0x40, 
  0x40, 0xE5, 0x3B, 0x00, 0x00, 0xA8, 0x08, 0x15, 0x15, 0xF0, 0x2F, 0x00, 
  0x00, 0x01, 0x51, 0x40, 0xA0, 0xF2, 0x1F, 0x00, 0x00, 0x54, 0x04, 0x09, 
  0x05, 0xF8, 0x0D, 0x00, 0x00, 0x00, 0x51, 0x20, 0xA8, 0x7A, 0x07, 0x00, 
  0x00, 0x54, 0x04, 0x8A, 0x02, 0xEC, 0x01, 0x00, 0x00, 0x00, 0x51, 0x20, 
  0xA8, 0x7C, 0x01, 0x00, 0x00, 0x20, 0x84, 0x82, 0x02, 0xDF, 0x00, 0x00, 
  0x00, 0x80, 0x28, 0x28, 0x54, 0x37, 0x00, 0x00, 0x00, 0x00, 0x82, 0x80, 
  0x80, 0x0D, 0x00, 0x00, 0x00, 0x00, 0x28, 0x12, 0xD5, 0x07, 0x00, 0x00, 
  0x00, 0x00, 0x80, 0x48, 0xF0, 0x00, 0x00, 0x00, 0x00, 0x00, 0x00, 0x22, 
  0x2D, 0x00, 0x00, 0x00, 0x00, 0x00, 0x00, 0x00, 0x02, 0x00, 0x00, 0x00, 
  };
