#define moon3_width 60
#define moon3_height 60
static char moon3_bits[] = {
  0x00, 0x00, 0x00, 0x00, 0x00, 0x00, 0x00, 0x00, 0x00, 0x00, 0x00, 0x00, 
  0x00, 0x00, 0x00, 0x00, 0x00, 0x00, 0x00, 0xAA, 0x2A, 0x00, 0x00, 0x00, 
  0x00, 0x00, 0xA0, 0x00, 0x40, 0x01, 0x00, 0x00, 0x00, 0x00, 0x08, 0x52, 
  0x15, 0x0D, 0x00, 0x00, 0x00, 0x00, 0x22, 0x00, 0x40, 0x18, 0x00, 0x00, 
  0x00, 0x80, 0x88, 0x24, 0x12, 0x62, 0x00, 0x00, 0x00, 0x00, 0x00, 0x91, 
  0x00, 0xC8, 0x00, 0x00, 0x00, 0x10, 0x55, 0x00, 0x92, 0x82, 0x03, 0x00, 
  0x00, 0x40, 0x00, 0xA4, 0x40, 0x28, 0x02, 0x00, 0x00, 0x04, 0x82, 0x00, 
  0x0A, 0x02, 0x0E, 0x00, 0x00, 0x80, 0x28, 0x08, 0x50, 0xA8, 0x0C, 0x00, 
  0x00, 0x11, 0x02, 0x42, 0x02, 0x01, 0x19, 0x00, 0x00, 0x40, 0x80, 0x00, 
  0x48, 0x48, 0x38, 0x00, 0x00, 0x12, 0x08, 0x48, 0x01, 0x82, 0x72, 0x00, 
  0x40, 0x00, 0x21, 0x02, 0x88, 0x10, 0x64, 0x00, 0x00, 0x22, 0x08, 0x10, 
  0x22, 0xA0, 0xE0, 0x00, 0x80, 0x08, 0x82, 0x44, 0x00, 0x04, 0xD5, 0x00, 
  0x00, 0x80, 0x20, 0x10, 0x89, 0x50, 0xC0, 0x01, 0x20, 0x12, 0x00, 0x42, 
  0x00, 0x00, 0xC5, 0x01, 0x80, 0x80, 0x24, 0x00, 0x25, 0x29, 0x88, 0x01, 
  0x08, 0x28, 0x80, 0x28, 0x00, 0x00, 0x81, 0x03, 0x40, 0x02, 0x0A, 0x82, 
  0x54, 0x42, 0x14, 0x03, 0x10, 0x80, 0x90, 0x20, 0x00, 0x08, 0x82, 0x07, 
  0x04, 0x08, 0x22, 0x08, 0x50, 0x82, 0x28, 0x03, 0x40, 0x22, 0x04, 0x81, 
  0x02, 0x20, 0x00, 0x07, 0x08, 0x90, 0x50, 0x10, 0xA8, 0x08, 0x52, 0x07, 
  0x44, 0x04, 0x02, 0x42, 0x01, 0x82, 0x00, 0x07, 0x10, 0x21, 0x88, 0x00, 
  0x4A, 0x20, 0x24, 0x07, 0x04, 0x80, 0x10, 0x28, 0x20, 0x08, 0x00, 0x05, 
  0x40, 0x04, 0x42, 0x82, 0x8A, 0x42, 0x49, 0x0F, 0x14, 0x10, 0x10, 0x10, 
  0x20, 0x10, 0x00, 0x07, 0x00, 0x41, 0x42, 0xA2, 0x8A, 0x42, 0x25, 0x05, 
  0x24, 0x04, 0x90, 0x08, 0x10, 0x10, 0x00, 0x07, 0x10, 0x21, 0x05, 0x90, 
  0xA2, 0x42, 0x49, 0x07, 0x44, 0x00, 0x40, 0x22, 0x04, 0x04, 0x02, 0x07, 
  0x10, 0x14, 0x11, 0x89, 0xA8, 0xA8, 0xA0, 0x05, 0x48, 0x41, 0x08, 0x20, 
  0x02, 0x01, 0x0A, 0x03, 0x00, 0x14, 0x42, 0x84, 0x28, 0x8A, 0xC0, 0x03, 
  0xA8, 0x80, 0x10, 0x50, 0x42, 0x20, 0x92, 0x03, 0x00, 0x25, 0x04, 0x09, 
  0x94, 0x0A, 0x41, 0x01, 0x10, 0x00, 0x41, 0xA0, 0x00, 0x20, 0xD4, 0x01, 
  0x40, 0x45, 0x10, 0x04, 0x55, 0x45, 0xC1, 0x01, 0x00, 0x10, 0x02, 0x51, 
  0x00, 0x08, 0x6A, 0x00, 0x20, 0x05, 0x10, 0x84, 0xAA, 0x52, 0xE0, 0x00, 
  0x00, 0x48, 0xA1, 0x28, 0x00, 0x81, 0x2A, 0x00, 0x80, 0x02, 0x04, 0x81, 
  0xAA, 0x54, 0x70, 0x00, 0x00, 0xA8, 0x28, 0x12, 0x00, 0x00, 0x19, 0x00, 
  0x00, 0x01, 0x81, 0xA0, 0xAA, 0x2A, 0x1A, 0x00, 0x00, 0x54, 0x14, 0x0A, 
  0x00, 0x40, 0x0C, 0x00, 0x00, 0x00, 0xA1, 0x40, 0x55, 0x95, 0x06, 0x00, 
  0x00, 0x54, 0x04, 0x04, 0x00, 0x20, 0x03, 0x00, 0x00, 0x00, 0xA9, 0x50, 
  0xAA, 0x8A, 0x00, 0x00, 0x00, 0x20, 0x00, 0x82, 0x00, 0xC0, 0x00, 0x00, 
  0x00, 0x80, 0xAA, 0x28, 0xAA, 0x2A, 0x00, 0x00, 0x00, 0x00, 0x00, 0x80, 
  0x40, 0x18, 0x00, 0x00, 0x00, 0x00, 0x54, 0x25, 0x0A, 0x07, 0x00, 0x00, 
  0x00, 0x00, 0x00, 0x88, 0x50, 0x01, 0x00, 0x00, 0x00, 0x00, 0x40, 0x21, 
  0x25, 0x00, 0x00, 0x00, 0x00, 0x00, 0x00, 0x08, 0x00, 0x00, 0x00, 0x00, 
  };
