#define moon2_width 60
#define moon2_height 60
static char moon2_bits[] = {
  0x00, 0x00, 0x00, 0x00, 0x00, 0x00, 0x00, 0x00, 0x00, 0x00, 0x00, 0x00, 
  0x00, 0x00, 0x00, 0x00, 0x00, 0x00, 0x00, 0xAA, 0x0A, 0x00, 0x00, 0x00, 
  0x00, 0x00, 0xA0, 0x00, 0xA0, 0x00, 0x00, 0x00, 0x00, 0x00, 0x08, 0x52, 
  0x05, 0x05, 0x00, 0x00, 0x00, 0x00, 0x22, 0x00, 0x28, 0x08, 0x00, 0x00, 
  0x00, 0x80, 0x88, 0x24, 0x82, 0xA2, 0x00, 0x00, 0x00, 0x00, 0x00, 0x91, 
  0x00, 0x88, 0x00, 0x00, 0x00, 0x10, 0x55, 0x00, 0x28, 0x22, 0x01, 0x00, 
  0x00, 0x40, 0x00, 0xA4, 0x82, 0x08, 0x02, 0x00, 0x00, 0x04, 0x82, 0x00, 
  0x24, 0xA2, 0x04, 0x00, 0x00, 0x80, 0x28, 0x08, 0x11, 0x08, 0x18, 0x00, 
  0x00, 0x11, 0x02, 0x42, 0x48, 0xA2, 0x22, 0x00, 0x00, 0x40, 0x80, 0x00, 
  0x00, 0x00, 0x24, 0x00, 0x00, 0x12, 0x08, 0x88, 0x92, 0xA4, 0x48, 0x00, 
  0x40, 0x00, 0x21, 0x22, 0x00, 0x10, 0x21, 0x00, 0x00, 0x22, 0x08, 0x00, 
  0x44, 0x44, 0xC4, 0x00, 0x80, 0x08, 0x82, 0x94, 0x10, 0x00, 0x89, 0x00, 
  0x00, 0x80, 0x20, 0x20, 0x02, 0x51, 0x10, 0x01, 0x20, 0x12, 0x00, 0x82, 
  0x40, 0x04, 0x45, 0x01, 0x80, 0x80, 0x24, 0x20, 0x12, 0x20, 0x00, 0x02, 
  0x08, 0x28, 0x80, 0x84, 0x00, 0x81, 0x8A, 0x02, 0x40, 0x02, 0x0A, 0x10, 
  0x54, 0x24, 0x10, 0x02, 0x10, 0x80, 0x90, 0x80, 0x00, 0x00, 0x82, 0x04, 
  0x04, 0x08, 0x22, 0x24, 0x20, 0x89, 0x28, 0x06, 0x40, 0x22, 0x84, 0x00, 
  0x12, 0x00, 0x84, 0x04, 0x08, 0x90, 0x10, 0x52, 0x40, 0x92, 0x10, 0x04, 
  0x44, 0x04, 0x42, 0x80, 0x8A, 0x00, 0x44, 0x05, 0x10, 0x21, 0x08, 0x22, 
  0x10, 0x20, 0x01, 0x04, 0x04, 0x80, 0x90, 0x08, 0x22, 0x0A, 0x90, 0x04, 
  0x40, 0x04, 0x42, 0x80, 0x44, 0x40, 0x01, 0x05, 0x14, 0x10, 0x10, 0x54, 
  0x88, 0x12, 0x14, 0x04, 0x00, 0x41, 0x42, 0x02, 0x11, 0x40, 0x41, 0x05, 
  0x24, 0x04, 0x10, 0x48, 0xA2, 0x12, 0x00, 0x04, 0x10, 0x21, 0x45, 0x22, 
  0x04, 0x40, 0x25, 0x05, 0x44, 0x00, 0x80, 0x88, 0xA8, 0x0A, 0x80, 0x04, 
  0x10, 0x14, 0x11, 0x20, 0x02, 0x90, 0x12, 0x02, 0x48, 0x41, 0x88, 0x88, 
  0xA8, 0x02, 0x44, 0x02, 0x00, 0x14, 0x02, 0x22, 0x02, 0xA4, 0x80, 0x02, 
  0xA8, 0x80, 0x10, 0x88, 0xA8, 0x02, 0x25, 0x02, 0x00, 0x25, 0x44, 0x20, 
  0x02, 0x28, 0x90, 0x02, 0x10, 0x00, 0x01, 0x89, 0xA8, 0x82, 0x02, 0x01, 
  0x40, 0x45, 0x10, 0x10, 0x01, 0x14, 0x54, 0x01, 0x00, 0x10, 0x82, 0x44, 
  0xAA, 0xA0, 0x80, 0x00, 0x20, 0x05, 0x10, 0x90, 0x40, 0x0A, 0x95, 0x00, 
  0x00, 0x48, 0x21, 0x05, 0x0A, 0x21, 0x40, 0x00, 0x80, 0x02, 0x44, 0x50, 
  0x50, 0x94, 0x2A, 0x00, 0x00, 0xA8, 0x08, 0x85, 0x82, 0x40, 0x20, 0x00, 
  0x00, 0x01, 0x51, 0x10, 0x14, 0x15, 0x15, 0x00, 0x00, 0x54, 0x04, 0x41, 
  0x21, 0x20, 0x08, 0x00, 0x00, 0x00, 0x51, 0x14, 0x44, 0x45, 0x02, 0x00, 
  0x00, 0x54, 0x04, 0x40, 0x09, 0x08, 0x04, 0x00, 0x00, 0x00, 0x51, 0x05, 
  0x50, 0x91, 0x02, 0x00, 0x00, 0x20, 0x04, 0x50, 0x05, 0x82, 0x00, 0x00, 
  0x00, 0x80, 0xA8, 0x04, 0xA8, 0x24, 0x00, 0x00, 0x00, 0x00, 0x02, 0xA0, 
  0x02, 0x11, 0x00, 0x00, 0x00, 0x00, 0xA8, 0x12, 0x28, 0x04, 0x00, 0x00, 
  0x00, 0x00, 0x00, 0x44, 0x41, 0x01, 0x00, 0x00, 0x00, 0x00, 0x80, 0x10, 
  0x0A, 0x00, 0x00, 0x00, 0x00, 0x00, 0x00, 0x80, 0x00, 0x00, 0x00, 0x00, 
  };
